<svg id="visual" viewBox="0 0 600 900" width="600" height="900" xmlns="http://www.w3.org/2000/svg" xmlns:xlink="http://www.w3.org/1999/xlink" version="1.1"><g><g transform="translate(311 811)"><path d="M84.4 -27.7C96.9 10.9 85.9 57 56.1 79.1C26.3 101.2 -22.3 99.3 -53.2 76.2C-84.1 53 -97.3 8.5 -85.5 -29.2C-73.7 -66.9 -36.9 -97.9 -0.4 -97.8C36 -97.7 72 -66.4 84.4 -27.7Z" stroke="#1F2937" fill="none" stroke-width="20"></path></g><g transform="translate(523 116)"><path d="M53.5 -15.4C61.5 7 54.6 36.3 35.9 50.1C17.2 63.8 -13.3 62 -31.8 47.7C-50.3 33.3 -56.8 6.4 -49.5 -15.2C-42.2 -36.8 -21.1 -52.9 0.8 -53.2C22.8 -53.5 45.6 -37.9 53.5 -15.4Z" stroke="#1F2937" fill="none" stroke-width="20"></path></g><g transform="translate(193 382)"><path d="M58.7 -19.2C66.1 3.7 55.2 32.4 35.4 46.2C15.6 60 -13.2 58.9 -32.3 45C-51.4 31 -60.7 4.1 -53.7 -18.2C-46.7 -40.5 -23.4 -58.3 1.1 -58.6C25.6 -59 51.3 -42 58.7 -19.2Z" stroke="#1F2937" fill="none" stroke-width="20"></path></g></g></svg>