<svg id="visual" viewBox="0 0 900 450" width="900" height="450" xmlns="http://www.w3.org/2000/svg" xmlns:xlink="http://www.w3.org/1999/xlink" version="1.1"><path d="M0 228L129 228L129 254L257 254L257 224L386 224L386 226L514 226L514 271L643 271L643 283L771 283L771 274L900 274L900 271L900 451L900 451L771 451L771 451L643 451L643 451L514 451L514 451L386 451L386 451L257 451L257 451L129 451L129 451L0 451Z" fill="#ffff00"></path><path d="M0 277L129 277L129 279L257 279L257 317L386 317L386 329L514 329L514 270L643 270L643 320L771 320L771 322L900 322L900 266L900 451L900 451L771 451L771 451L643 451L643 451L514 451L514 451L386 451L386 451L257 451L257 451L129 451L129 451L0 451Z" fill="#00aea1"></path><path d="M0 386L129 386L129 338L257 338L257 380L386 380L386 378L514 378L514 354L643 354L643 342L771 342L771 406L900 406L900 375L900 451L900 451L771 451L771 451L643 451L643 451L514 451L514 451L386 451L386 451L257 451L257 451L129 451L129 451L0 451Z" fill="#374151"></path></svg>