<svg id="visual" viewBox="0 0 600 900" width="600" height="900" xmlns="http://www.w3.org/2000/svg" xmlns:xlink="http://www.w3.org/1999/xlink" version="1.1"><g transform="translate(301.8192371623314 504.87659598608957)"><path d="M112.5 -168.9C139.8 -111.2 151.6 -70 163.6 -25.4C175.7 19.3 187.9 67.4 172.4 104.5C156.9 141.5 113.7 167.6 66.2 187.1C18.7 206.7 -33.1 219.9 -65.1 199.3C-97.1 178.8 -109.5 124.6 -123.9 80.7C-138.3 36.8 -154.8 3.3 -168.8 -49.3C-182.8 -101.9 -194.2 -173.5 -165.7 -231C-137.1 -288.4 -68.6 -331.7 -13 -316.3C42.6 -300.8 85.3 -226.6 112.5 -168.9" fill="#5B86E5"></path></g></svg>