<svg width="1381" height="455" viewBox="0 0 1381 455" fill="none" xmlns="http://www.w3.org/2000/svg">
<path d="M427.998 165.248H461.811C469.436 165.248 475.248 165.831 479.248 166.998C484.623 168.581 489.227 171.394 493.061 175.435C496.894 179.477 499.811 184.435 501.811 190.31C503.811 196.144 504.811 203.352 504.811 211.935C504.811 219.477 503.873 225.977 501.998 231.435C499.706 238.102 496.436 243.498 492.186 247.623C488.977 250.748 484.644 253.185 479.186 254.935C475.102 256.227 469.644 256.873 462.811 256.873H427.998V165.248ZM446.498 180.748V241.435H460.311C465.477 241.435 469.206 241.144 471.498 240.56C474.498 239.81 476.977 238.539 478.936 236.748C480.936 234.956 482.561 232.019 483.811 227.935C485.061 223.81 485.686 218.206 485.686 211.123C485.686 204.039 485.061 198.602 483.811 194.81C482.561 191.019 480.811 188.06 478.561 185.935C476.311 183.81 473.456 182.373 469.998 181.623C467.415 181.039 462.352 180.748 454.811 180.748H446.498ZM521.493 222.748C521.493 216.914 522.931 211.269 525.806 205.81C528.681 200.352 532.743 196.185 537.993 193.31C543.285 190.435 549.181 188.998 555.681 188.998C565.722 188.998 573.951 192.269 580.368 198.81C586.785 205.31 589.993 213.539 589.993 223.498C589.993 233.539 586.743 241.873 580.243 248.498C573.785 255.081 565.639 258.373 555.806 258.373C549.722 258.373 543.91 256.998 538.368 254.248C532.868 251.498 528.681 247.477 525.806 242.185C522.931 236.852 521.493 230.373 521.493 222.748ZM539.493 223.685C539.493 230.269 541.056 235.31 544.181 238.81C547.306 242.31 551.16 244.06 555.743 244.06C560.326 244.06 564.16 242.31 567.243 238.81C570.368 235.31 571.931 230.227 571.931 223.56C571.931 217.06 570.368 212.06 567.243 208.56C564.16 205.06 560.326 203.31 555.743 203.31C551.16 203.31 547.306 205.06 544.181 208.56C541.056 212.06 539.493 217.102 539.493 223.685ZM666.801 210.123L649.488 213.248C648.905 209.789 647.571 207.185 645.488 205.435C643.446 203.685 640.78 202.81 637.488 202.81C633.113 202.81 629.613 204.331 626.988 207.373C624.405 210.373 623.113 215.414 623.113 222.498C623.113 230.373 624.426 235.935 627.051 239.185C629.717 242.435 633.28 244.06 637.738 244.06C641.071 244.06 643.801 243.123 645.926 241.248C648.051 239.331 649.551 236.06 650.426 231.435L667.676 234.373C665.884 242.289 662.446 248.269 657.363 252.31C652.28 256.352 645.467 258.373 636.926 258.373C627.217 258.373 619.467 255.31 613.676 249.185C607.926 243.06 605.051 234.581 605.051 223.748C605.051 212.789 607.946 204.269 613.738 198.185C619.53 192.06 627.363 188.998 637.238 188.998C645.321 188.998 651.738 190.748 656.488 194.248C661.28 197.706 664.717 202.998 666.801 210.123Z" fill="white"/>
<path d="M676.421 165.248H706.046L726.671 231.185L746.983 165.248H775.733L741.733 256.873H711.046L676.421 165.248ZM806.228 211.998L781.916 209.435C782.832 205.185 784.145 201.852 785.853 199.435C787.603 196.977 790.103 194.852 793.353 193.06C795.686 191.769 798.895 190.769 802.978 190.06C807.061 189.352 811.478 188.998 816.228 188.998C823.853 188.998 829.978 189.435 834.603 190.31C839.228 191.144 843.082 192.914 846.166 195.623C848.332 197.498 850.041 200.164 851.291 203.623C852.541 207.039 853.166 210.31 853.166 213.435V242.748C853.166 245.873 853.353 248.331 853.728 250.123C854.145 251.873 855.02 254.123 856.353 256.873H832.478C831.52 255.164 830.895 253.873 830.603 252.998C830.311 252.081 830.02 250.664 829.728 248.748C826.395 251.956 823.082 254.248 819.791 255.623C815.291 257.456 810.061 258.373 804.103 258.373C796.186 258.373 790.166 256.539 786.041 252.873C781.957 249.206 779.916 244.685 779.916 239.31C779.916 234.269 781.395 230.123 784.353 226.873C787.311 223.623 792.77 221.206 800.728 219.623C810.27 217.706 816.457 216.373 819.291 215.623C822.124 214.831 825.124 213.81 828.291 212.56C828.291 209.435 827.645 207.248 826.353 205.998C825.061 204.748 822.791 204.123 819.541 204.123C815.374 204.123 812.249 204.789 810.166 206.123C808.541 207.164 807.228 209.123 806.228 211.998ZM828.291 225.373C824.791 226.623 821.145 227.727 817.353 228.685C812.186 230.06 808.916 231.414 807.541 232.748C806.124 234.123 805.416 235.685 805.416 237.435C805.416 239.435 806.103 241.081 807.478 242.373C808.895 243.623 810.957 244.248 813.666 244.248C816.499 244.248 819.124 243.56 821.541 242.185C823.999 240.81 825.728 239.144 826.728 237.185C827.77 235.185 828.291 232.602 828.291 229.435V225.373ZM943.473 256.873H919.723V246.123C916.181 250.539 912.598 253.685 908.973 255.56C905.39 257.435 900.973 258.373 895.723 258.373C888.723 258.373 883.223 256.289 879.223 252.123C875.265 247.914 873.286 241.456 873.286 232.748V190.498H898.848V226.998C898.848 231.164 899.619 234.123 901.161 235.873C902.702 237.623 904.869 238.498 907.661 238.498C910.702 238.498 913.181 237.331 915.098 234.998C917.056 232.664 918.036 228.477 918.036 222.435V190.498H943.473V256.873ZM964.906 165.248H990.406V256.873H964.906V165.248ZM1042.46 165.248V190.498H1056.46V209.06H1042.46V232.623C1042.46 235.456 1042.73 237.331 1043.28 238.248C1044.11 239.664 1045.57 240.373 1047.65 240.373C1049.53 240.373 1052.15 239.831 1055.53 238.748L1057.4 256.31C1051.11 257.685 1045.23 258.373 1039.78 258.373C1033.44 258.373 1028.78 257.56 1025.78 255.935C1022.78 254.31 1020.55 251.852 1019.09 248.56C1017.67 245.227 1016.96 239.852 1016.96 232.435V209.06H1007.59V190.498H1016.96V178.31L1042.46 165.248Z" fill="#1F2937"/>
<g clip-path="url(#clip0_28_811)">
<path d="M418.748 347.984H0.057373V348.212H418.748V347.984Z" fill="#E0E0E0"/>
<path d="M355.199 360.751H346.315V360.979H355.199V360.751Z" fill="#E0E0E0"/>
<path d="M340.168 360.86H304.035V361.088H340.168V360.86Z" fill="#E0E0E0"/>
<path d="M259.369 358.695H198.391V358.922H259.369V358.695Z" fill="#E0E0E0"/>
<path d="M163.313 362.644H143.961V362.872H163.313V362.644Z" fill="#E0E0E0"/>
<path d="M98.8266 358.804H72.1812V359.031H98.8266V358.804Z" fill="#E0E0E0"/>
<path d="M128.378 358.804H103.474V359.031H128.378V358.804Z" fill="#E0E0E0"/>
<path d="M80.1613 354.827H54.73V355.055H80.1613V354.827Z" fill="#E0E0E0"/>
<path d="M149.388 258.995C149.848 258.995 150.309 258.995 150.778 259.041C153.695 259.265 156.531 260.187 159.083 261.742C161.634 263.298 163.836 265.447 165.533 268.036C167.23 270.625 168.379 273.59 168.897 276.719C169.415 279.847 169.29 283.062 168.53 286.131C166.367 295.298 165.322 304.733 165.423 314.196V341.751C165.423 342.716 165.07 343.642 164.442 344.324C163.814 345.007 162.962 345.391 162.074 345.391H81.6099V258.995H149.388Z" fill="#E6E6E6"/>
<path d="M61.7892 280.535C61.7917 277.469 62.3964 274.439 63.5628 271.648C64.7293 268.856 66.4306 266.368 68.5532 264.348C70.6757 262.329 73.1705 260.825 75.8708 259.937C78.5711 259.049 81.4146 258.798 84.2113 259.2C87.0081 259.603 89.6935 260.649 92.0882 262.27C94.4829 263.891 96.5317 266.048 98.0975 268.599C99.6633 271.149 100.71 274.033 101.168 277.058C101.626 280.083 101.484 283.18 100.753 286.14C98.5893 295.307 97.5448 304.743 97.6459 314.205V341.76C97.6459 342.725 97.293 343.651 96.6648 344.334C96.0366 345.016 95.1847 345.4 94.2963 345.4H68.9069C68.0186 345.4 67.1666 345.016 66.5385 344.334C65.9103 343.651 65.5574 342.725 65.5574 341.76V312.585C65.6307 303.712 64.5997 294.868 62.4926 286.295C62.0196 284.418 61.7829 282.481 61.7892 280.535Z" fill="#F0F0F0"/>
<path d="M108.925 345.372H210.692V292.929H108.925V345.372Z" fill="#E6E6E6"/>
<path d="M270.398 304.786H144.179V246.419C144.179 242.094 145.76 237.946 148.574 234.888C151.388 231.83 155.205 230.112 159.185 230.112H255.417C259.392 230.119 263.203 231.84 266.011 234.898C268.82 237.955 270.398 242.099 270.398 246.419V304.786Z" fill="#E0E0E0"/>
<path d="M251.506 304.786H125.296V245.636C125.296 241.521 126.8 237.575 129.478 234.665C132.155 231.756 135.787 230.121 139.574 230.121H237.229C241.016 230.121 244.647 231.756 247.325 234.665C250.002 237.575 251.506 241.521 251.506 245.636V304.786Z" fill="#F0F0F0"/>
<path d="M205.961 309.491H109.855C108.7 309.491 107.592 308.993 106.776 308.105C105.959 307.218 105.5 306.014 105.5 304.759V292.865C105.5 291.61 105.959 290.407 106.776 289.519C107.592 288.632 108.7 288.133 109.855 288.133H205.961C206.305 288.133 206.635 288.282 206.879 288.547C207.122 288.811 207.259 289.17 207.259 289.544V308.081C207.259 308.455 207.122 308.813 206.879 309.078C206.635 309.342 206.305 309.491 205.961 309.491Z" fill="#E0E0E0"/>
<path d="M277.515 258.995C277.976 258.995 278.445 258.995 278.914 259.041C281.832 259.265 284.668 260.187 287.219 261.742C289.77 263.298 291.973 265.447 293.669 268.036C295.366 270.625 296.515 273.59 297.033 276.719C297.551 279.847 297.426 283.062 296.666 286.131C294.496 295.296 293.449 304.733 293.551 314.196V341.751C293.551 342.716 293.198 343.642 292.57 344.324C291.942 345.007 291.09 345.391 290.202 345.391H209.746V258.995H277.515Z" fill="#E6E6E6"/>
<path d="M189.917 280.535C189.947 274.963 191.962 269.621 195.538 265.629C199.115 261.637 203.976 259.305 209.1 259.124C214.225 258.943 219.215 260.925 223.023 264.656C226.831 268.387 229.161 273.576 229.525 279.134C229.664 281.491 229.449 283.858 228.888 286.141C226.725 295.307 225.681 304.743 225.782 314.205V341.76C225.782 342.725 225.429 343.651 224.801 344.334C224.173 345.016 223.321 345.4 222.432 345.4H197.034C196.146 345.4 195.294 345.016 194.666 344.334C194.038 343.651 193.685 342.725 193.685 341.76V312.585C193.76 303.711 192.726 294.867 190.612 286.295C190.142 284.418 189.908 282.48 189.917 280.535Z" fill="#F0F0F0"/>
<path d="M83.0252 347.993H276.1C276.418 347.994 276.732 347.927 277.026 347.796C277.319 347.665 277.586 347.472 277.811 347.229C278.036 346.985 278.214 346.696 278.336 346.377C278.458 346.059 278.52 345.717 278.52 345.372H80.6135C80.6135 346.067 80.8676 346.734 81.3199 347.226C81.7722 347.717 82.3856 347.993 83.0252 347.993Z" fill="#E0E0E0"/>
<path d="M345.553 344.271H362.92V245.618H345.553V344.271Z" fill="#E6E6E6"/>
<path d="M283.888 347.984H359.587V344.28H283.888V347.984Z" fill="#E6E6E6"/>
<path d="M345.553 245.618H280.555V344.271H345.553V245.618Z" fill="#F0F0F0"/>
<path d="M343.091 248.867H283.017V311.639H343.091V248.867Z" fill="#E6E6E6"/>
<path d="M343.091 314.305H283.017V336.928H343.091V314.305Z" fill="#E6E6E6"/>
<path d="M295.687 248.867H283.017V311.639H295.687V248.867Z" fill="#E0E0E0"/>
<path d="M295.687 314.305H283.017V336.928H295.687V314.305Z" fill="#E0E0E0"/>
<path d="M143.543 199.499L294.137 199.499V80.7807L143.543 80.7807V199.499Z" fill="#E0E0E0"/>
<path d="M132.757 199.499L291.382 199.499V80.7807L132.757 80.7807V199.499Z" fill="#F0F0F0"/>
<path d="M288.024 195.841V84.439L136.132 84.439V195.841H288.024Z" fill="#FAFAFA"/>
<path d="M218.66 140.983C221.025 124.995 211.015 109.951 196.303 107.382C181.591 104.812 167.748 115.69 165.383 131.678C163.019 147.666 173.029 162.71 187.741 165.279C202.453 167.849 216.296 156.971 218.66 140.983Z" fill="#E0E0E0"/>
<path d="M147.612 170.17C150.066 166.803 154.99 164.21 158.632 164.373C159.17 164.352 159.706 164.448 160.209 164.654C160.712 164.86 161.172 165.173 161.563 165.575C168.212 161.389 175.866 158.822 182.188 159.104C185.403 159.241 187.899 160.105 189.624 161.516C196.767 155.201 205.869 150.714 212.476 150.714C216.227 150.714 218.555 152.17 219.384 154.582C226.711 150.341 234.239 147.739 240.319 147.739C249.999 147.739 253.139 154.354 249.178 163.654C250.769 165.411 258.39 167.859 258.088 170.789H147.194C147.328 170.561 147.436 170.352 147.612 170.17Z" fill="#F0F0F0"/>
<path d="M185.789 127.455C186.239 127.435 186.687 127.536 187.093 127.748C187.499 127.961 187.85 128.279 188.117 128.674C193.761 124.424 200.125 121.813 205.249 122.104C207.439 122.095 209.554 122.967 211.186 124.552C217.316 118.182 224.97 113.632 230.346 113.632C233.411 113.632 235.236 115.106 235.78 117.554C241.969 113.25 248.232 110.602 253.189 110.602C259.319 110.602 262.032 114.669 261.186 120.912C264.142 119.092 267.048 118.027 269.41 118.027C272.684 118.027 274.225 120.075 273.957 123.296C274.241 123.296 274.526 123.296 274.794 123.342C279.818 123.878 281.711 128.037 279.307 132.796H176.879C179.123 129.639 182.983 127.3 185.789 127.455Z" fill="#F0F0F0"/>
<path d="M102.955 128.515C105.208 112.509 95.095 97.5469 80.3656 95.0975C65.6362 92.6481 51.8684 103.639 49.6145 119.645C47.3606 135.652 57.474 150.614 72.2034 153.063C86.9329 155.513 100.701 144.522 102.955 128.515Z" fill="#E0E0E0"/>
<path d="M101.375 128.745C103.739 112.757 93.7296 97.713 79.0175 95.1436C64.3054 92.5741 50.4622 103.452 48.0978 119.44C45.7334 135.428 55.7432 150.472 70.4553 153.041C85.1674 155.61 99.0106 144.733 101.375 128.745Z" fill="#F0F0F0"/>
<path d="M98.3241 124.07C98.3326 130.137 96.3633 136.011 92.7655 140.651C89.1677 145.291 84.174 148.395 78.6702 149.415C73.1665 150.434 67.5083 149.302 62.6995 146.219C57.8907 143.137 54.242 138.303 52.4007 132.575C50.5594 126.847 50.6445 120.595 52.6409 114.929C54.6372 109.263 58.4159 104.548 63.3065 101.622C68.1971 98.6948 73.8835 97.745 79.3571 98.9408C84.8308 100.137 89.7378 103.4 93.2077 108.154L93.2747 108.236C96.5525 112.744 98.332 118.324 98.3241 124.07Z" fill="#E0E0E0"/>
<path d="M98.324 124.07C98.3172 129.239 96.8731 134.285 94.181 138.546C91.4889 142.808 87.6746 146.086 83.2383 147.95C78.8019 149.815 73.9506 150.179 69.3205 148.994C64.6905 147.81 60.4978 145.133 57.2923 141.314C53.5112 136.101 51.738 129.498 52.3456 122.894C52.9533 116.289 55.8945 110.199 60.5504 105.903C65.2064 101.607 71.2141 99.4411 77.3096 99.8609C83.4051 100.281 89.1131 103.253 93.2328 108.154L93.2998 108.236C96.5686 112.747 98.339 118.327 98.324 124.07Z" fill="#FAFAFA"/>
<path d="M75.2457 126.554C74.9306 126.55 74.6228 126.45 74.3576 126.265C74.0925 126.08 73.8808 125.817 73.7468 125.507L67.7344 111.566C67.6361 111.349 67.5785 111.113 67.5651 110.871C67.5516 110.63 67.5826 110.388 67.6562 110.16C67.7298 109.932 67.8445 109.722 67.9937 109.542C68.1428 109.362 68.3234 109.217 68.5249 109.114C68.7263 109.011 68.9446 108.953 69.167 108.943C69.3894 108.933 69.6114 108.971 69.82 109.056C70.0287 109.14 70.2198 109.268 70.3821 109.434C70.5445 109.599 70.6749 109.798 70.7658 110.019L76.0915 122.395L83.787 119.01C84.199 118.829 84.6603 118.833 85.0694 119.022C85.4785 119.21 85.8019 119.568 85.9684 120.015C86.135 120.463 86.1311 120.964 85.9575 121.409C85.784 121.853 85.4551 122.205 85.0431 122.386L75.8738 126.417C75.6745 126.506 75.4612 126.553 75.2457 126.554Z" fill="#E0E0E0"/>
<path d="M311.948 287.97C318.195 288.88 322.064 274.138 308.264 261.634C309.051 276.112 301.046 286.332 311.948 287.97Z" fill="#F0F0F0"/>
<path d="M315.884 297.297C324.953 290.39 318.748 266.266 290.696 268.013C302.829 285.74 300.083 309.336 315.884 297.297Z" fill="#F0F0F0"/>
<path d="M312.685 297.133C306.665 290.081 315.239 272.336 336.911 278.815C324.677 290.5 323.195 309.4 312.685 297.133Z" fill="#F0F0F0"/>
<path d="M303.357 311.639H321.989L323.396 298.18H301.95L303.357 311.639Z" fill="#E0E0E0"/>
<path d="M300.569 300.582H324.786V297.616H300.569V300.582Z" fill="#E0E0E0"/>
<path d="M209.403 389.08C299.072 389.08 371.763 384.468 371.763 378.778C371.763 373.089 299.072 368.477 209.403 368.477C119.734 368.477 47.043 373.089 47.043 378.778C47.043 384.468 119.734 389.08 209.403 389.08Z" fill="#F5F5F5"/>
<path d="M324.644 352.949L318.664 355.465L323.815 369.928L329.796 367.412L324.644 352.949Z" fill="#E4897B"/>
<path d="M351.381 371.78H345.075L342.756 355.919H349.061L351.381 371.78Z" fill="#E4897B"/>
<path d="M344.665 370.989H351.758C351.88 370.987 351.999 371.033 352.092 371.118C352.186 371.203 352.248 371.322 352.268 371.453L353.19 377.55C353.209 377.702 353.198 377.857 353.157 378.004C353.116 378.151 353.046 378.287 352.952 378.402C352.858 378.517 352.742 378.609 352.613 378.671C352.483 378.732 352.343 378.763 352.202 378.76C349.731 378.715 348.534 378.56 345.419 378.56C343.501 378.56 337.715 378.778 335.069 378.778C332.423 378.778 332.23 375.93 333.327 375.675C338.242 374.519 341.994 372.945 343.627 371.407C343.919 371.144 344.285 370.996 344.665 370.989Z" fill="#263238"/>
<path d="M323.68 368.55L330.379 366.43C330.497 366.387 330.624 366.392 330.738 366.444C330.852 366.496 330.945 366.591 330.999 366.712L333.511 372.172C333.571 372.31 333.602 372.461 333.602 372.614C333.602 372.767 333.571 372.918 333.511 373.056C333.451 373.194 333.363 373.316 333.255 373.414C333.146 373.511 333.019 373.581 332.883 373.619C330.455 374.337 328.813 374.792 325.774 375.757C323.663 376.421 321.528 377.504 319.443 378.223C318.011 378.724 314.628 378.742 312.878 378.742C310.291 378.742 309.713 375.775 310.818 375.639C313.623 375.293 314.008 375.457 315.558 374.61C318.088 373.403 320.382 371.679 322.315 369.533C322.684 369.082 323.155 368.744 323.68 368.55Z" fill="#263238"/>
<path d="M314.327 149.941C313.808 151.369 313.314 152.616 312.753 153.926C312.191 155.237 311.63 156.493 311.036 157.757C309.833 160.324 308.5 162.815 307.042 165.219C305.521 167.781 303.758 170.162 301.783 172.327C300.66 173.561 299.407 174.645 298.048 175.557C296.344 176.709 294.393 177.362 292.387 177.45C291.827 177.466 291.266 177.423 290.713 177.322C290.229 177.237 289.751 177.118 289.281 176.968C288.482 176.703 287.704 176.372 286.953 175.976C285.666 175.274 284.426 174.474 283.243 173.582C281.072 171.942 279.002 170.148 277.047 168.213C273.249 164.478 269.706 160.448 266.445 156.156L269.694 152.607C273.538 155.901 277.482 159.195 281.418 162.198C283.335 163.677 285.319 165.049 287.363 166.311C288.285 166.882 289.245 167.378 290.235 167.795C290.778 168.09 291.379 168.237 291.985 168.222C292.465 168.068 292.913 167.818 293.309 167.485C294.033 166.903 294.701 166.241 295.301 165.511C296.743 163.717 298.032 161.786 299.153 159.741C300.359 157.612 301.49 155.364 302.562 153.071C303.098 151.924 303.617 150.76 304.119 149.595C304.622 148.43 305.132 147.201 305.559 146.128L314.327 149.941Z" fill="#E4897B"/>
<path d="M270.59 154.8L269.694 149.404L263.305 153.663C263.305 153.663 265.323 157.066 267.45 157.121L270.59 154.8Z" fill="#E4897B"/>
<path d="M266.713 146.155L261.722 149.841L263.297 153.663L269.686 149.404L266.713 146.155Z" fill="#E4897B"/>
<path d="M317.257 142.97C318.798 149.194 310.408 161.698 310.408 161.698L299.388 154.982C299.388 154.982 301.439 149.841 303.96 144.608C308.021 136.154 315.491 135.872 317.257 142.97Z" fill="#1F2937"/>
<path opacity="0.6" d="M317.257 142.97C318.798 149.194 310.408 161.698 310.408 161.698L299.388 154.982C299.388 154.982 301.439 149.841 303.96 144.608C308.021 136.154 315.491 135.872 317.257 142.97Z" fill="#FAFAFA"/>
<path d="M303.784 157.648L308.113 160.287L308.867 145.855C306.355 147.957 304.571 154.29 303.784 157.648Z" fill="#1F2937"/>
<path opacity="0.3" d="M303.784 157.648L308.113 160.287L308.867 145.855C306.355 147.957 304.571 154.29 303.784 157.648Z" fill="#FAFAFA"/>
<path d="M325.537 354.18L319.538 356.697L322.195 364.176L328.194 361.659L325.537 354.18Z" fill="#CE6F64"/>
<path d="M349.07 355.919H342.756L343.953 364.1H350.259L349.07 355.919Z" fill="#CE6F64"/>
<path d="M345.36 137.929C338.937 164.437 340.713 191.883 340.177 197.506H306.455C301.431 158.977 310.023 138.284 310.023 138.284C310.023 138.284 312.702 137.501 316.152 136.891L317.115 136.737C317.995 136.6 318.899 136.473 319.82 136.382C324.595 136.081 329.381 136.081 334.156 136.382C334.901 136.382 335.655 136.482 336.392 136.545L337.271 136.636C341.617 137.101 345.36 137.929 345.36 137.929Z" fill="#1F2937"/>
<path opacity="0.6" d="M345.36 137.929C338.937 164.437 340.713 191.883 340.177 197.506H306.455C301.431 158.977 310.023 138.284 310.023 138.284C310.023 138.284 312.702 137.501 316.152 136.891L317.115 136.737C317.995 136.6 318.899 136.473 319.82 136.382C324.595 136.081 329.381 136.081 334.156 136.382C334.901 136.382 335.655 136.482 336.392 136.545L337.271 136.636C341.617 137.101 345.36 137.929 345.36 137.929Z" fill="#FAFAFA"/>
<path d="M305.384 187.078C305.501 188.722 305.649 190.408 305.827 192.137L330.949 183.292C334.865 182.023 338.267 179.343 340.595 175.694C340.688 173.264 340.813 170.707 341.006 168.04C341.089 166.739 341.198 165.411 341.307 164.064C341.416 162.717 341.567 161.234 341.718 159.796L305.384 187.078Z" fill="#1F2937"/>
<path opacity="0.3" d="M305.384 187.078C305.501 188.722 305.649 190.408 305.827 192.137L330.949 183.292C334.865 182.023 338.267 179.343 340.595 175.694C340.688 173.264 340.813 170.707 341.006 168.04C341.089 166.739 341.198 165.411 341.307 164.064C341.416 162.717 341.567 161.234 341.718 159.796L305.384 187.078Z" fill="#FAFAFA"/>
<path d="M336.392 136.545L336.057 137.328C335.948 137.592 333.277 143.744 323.454 143.744C322.148 143.744 318.17 143.744 316.923 140.722C316.684 140.083 316.577 139.395 316.611 138.706C316.644 138.017 316.816 137.345 317.115 136.737L316.152 136.891C315.892 137.556 315.759 138.271 315.759 138.993C315.759 139.716 315.892 140.431 316.152 141.095C317.618 144.654 322.014 144.654 323.446 144.654C333.796 144.654 336.693 137.983 336.844 137.701L337.288 136.636L336.392 136.545Z" fill="#FAFAFA"/>
<path d="M333.679 118.837C332.506 123.851 331.108 133.033 334.156 136.382C334.156 136.382 332.029 141.469 323.454 141.469C315.625 141.469 319.82 136.382 319.82 136.382C325.037 135.044 325.129 130.922 324.442 127.009L333.679 118.837Z" fill="#E4897B"/>
<path d="M329.91 122.167L324.442 127C324.616 127.898 324.714 128.812 324.735 129.73C326.335 131.459 329.542 127.081 329.877 124.843C330.035 123.96 330.046 123.054 329.91 122.167Z" fill="#CE6F64"/>
<path d="M314.586 116.407C314.719 117.22 315.006 117.993 315.428 118.68C315.851 119.366 316.399 119.949 317.04 120.393C318.781 121.594 320.389 120.074 320.465 117.963C320.565 116.07 319.778 113.158 317.743 112.813C317.3 112.741 316.847 112.786 316.423 112.944C315.999 113.101 315.616 113.368 315.307 113.72C314.997 114.073 314.77 114.501 314.645 114.968C314.52 115.436 314.499 115.929 314.586 116.407Z" fill="#CE6F64"/>
<path d="M319.217 103.176C315.993 104.495 314.033 117.909 317.835 120.193C321.637 122.477 325.321 100.682 319.217 103.176Z" fill="#263238"/>
<path d="M313.774 107.826C316.152 110.556 328.277 107.28 328.738 102.584C329.199 97.8887 309.277 102.693 313.774 107.826Z" fill="#263238"/>
<path d="M333.503 110.701C333.277 117.536 333.461 121.53 330.396 125.261C329.455 126.506 328.216 127.445 326.816 127.973C325.416 128.502 323.908 128.599 322.46 128.256C321.012 127.912 319.679 127.141 318.609 126.026C317.539 124.912 316.773 123.498 316.395 121.94C314.921 115.952 315.558 105.787 321.57 102.53C322.831 101.777 324.255 101.405 325.694 101.452C327.132 101.499 328.533 101.963 329.751 102.797C330.968 103.631 331.958 104.804 332.618 106.194C333.278 107.583 333.583 109.14 333.503 110.701Z" fill="#E4897B"/>
<path d="M329.709 96.5145C334.156 95.3224 335.127 96.6874 335.328 99.9907C335.529 103.294 339.582 102.375 338.217 107.362C337.581 109.719 335.948 109.518 336.944 112.294C338.083 115.488 331.325 119.356 329.734 119.346C327.113 119.346 327.691 113.413 329.827 108.017C331.426 103.977 327.44 105.096 322.868 106.606C312.568 110.001 305.743 100.236 312.133 95.559C315.516 93.0747 324.819 98.2253 329.709 96.5145Z" fill="#263238"/>
<path d="M336.484 117.945C335.684 119.462 334.391 120.599 332.858 121.13C330.84 121.803 329.894 119.874 330.505 117.79C331.058 115.907 332.783 113.295 334.775 113.541C336.768 113.786 337.455 116.061 336.484 117.945Z" fill="#E4897B"/>
<path d="M306.455 197.47C306.455 197.47 300.795 252.516 300.351 273.409C299.89 295.149 319.535 362.953 319.535 362.953L329.584 358.358C329.584 358.358 317.86 296.414 319.535 275.075C321.277 251.842 328.621 197.47 328.621 197.47H306.455Z" fill="#263238"/>
<path d="M320.515 212.621C316.01 222.795 319.05 242.906 321.495 254.827C322.424 246.419 323.521 237.282 324.568 228.828C324.467 215.825 323.538 205.796 320.515 212.621Z" fill="#182137"/>
<path d="M329.148 354.827C329.19 354.827 330.337 358.312 330.337 358.312L318.748 363.6L316.914 359.914L329.148 354.827Z" fill="#1F2937"/>
<path opacity="0.6" d="M329.148 354.827C329.19 354.827 330.337 358.312 330.337 358.312L318.748 363.6L316.914 359.914L329.148 354.827Z" fill="#FAFAFA"/>
<path d="M318.413 197.47C318.413 197.47 322.742 249.822 325.615 269.442C328.755 290.927 341.098 362.48 341.098 362.48H352.654C352.654 362.48 345.728 292.656 344.422 271.389C343.007 248.303 340.177 197.47 340.177 197.47H318.413Z" fill="#263238"/>
<path d="M352.829 358.722C352.871 358.722 353.215 362.753 353.215 362.753H340.52L339.615 358.203L352.829 358.722Z" fill="#1F2937"/>
<path opacity="0.6" d="M352.829 358.722C352.871 358.722 353.215 362.753 353.215 362.753H340.52L339.615 358.203L352.829 358.722Z" fill="#FAFAFA"/>
<path d="M348.408 355.1C348.382 355.1 348.356 355.089 348.337 355.068C348.318 355.048 348.308 355.02 348.308 354.991C348.241 354.363 342.002 291.291 340.83 272.181C339.557 251.442 336.995 205.469 336.97 205.005C336.968 204.989 336.97 204.974 336.975 204.959C336.979 204.944 336.986 204.93 336.995 204.918C337.005 204.907 337.016 204.897 337.029 204.89C337.042 204.883 337.056 204.879 337.07 204.877C337.098 204.877 337.124 204.889 337.144 204.909C337.164 204.929 337.177 204.957 337.179 204.987C337.179 205.451 339.766 251.397 341.039 272.163C342.212 291.273 348.45 354.299 348.517 354.973C348.519 354.988 348.519 355.003 348.515 355.018C348.512 355.033 348.506 355.047 348.497 355.059C348.488 355.071 348.477 355.081 348.465 355.088C348.453 355.095 348.439 355.099 348.425 355.1H348.408Z" fill="#1F2937"/>
<path opacity="0.5" d="M348.408 355.1C348.382 355.1 348.356 355.089 348.337 355.068C348.318 355.048 348.308 355.02 348.308 354.991C348.241 354.363 342.002 291.291 340.83 272.181C339.557 251.442 336.995 205.469 336.97 205.005C336.968 204.989 336.97 204.974 336.975 204.959C336.979 204.944 336.986 204.93 336.995 204.918C337.005 204.907 337.016 204.897 337.029 204.89C337.042 204.883 337.056 204.879 337.07 204.877C337.098 204.877 337.124 204.889 337.144 204.909C337.164 204.929 337.177 204.957 337.179 204.987C337.179 205.451 339.766 251.397 341.039 272.163C342.212 291.273 348.45 354.299 348.517 354.973C348.519 354.988 348.519 355.003 348.515 355.018C348.512 355.033 348.506 355.047 348.497 355.059C348.488 355.071 348.477 355.081 348.465 355.088C348.453 355.095 348.439 355.099 348.425 355.1H348.408Z" fill="black"/>
<path d="M324.124 113.459C324.124 114.014 323.881 114.487 323.546 114.514C323.211 114.542 322.935 114.123 322.926 113.604C322.918 113.086 323.169 112.576 323.504 112.549C323.839 112.521 324.124 112.904 324.124 113.459Z" fill="#263238"/>
<path d="M318.38 113.978C318.38 114.533 318.137 115.006 317.802 115.033C317.467 115.06 317.19 114.642 317.182 114.123C317.174 113.604 317.425 113.095 317.76 113.068C318.095 113.04 318.363 113.422 318.38 113.978Z" fill="#263238"/>
<path d="M320.205 114.087C319.636 115.842 318.859 117.509 317.894 119.046C318.807 119.874 320.322 119.319 320.322 119.319L320.205 114.087Z" fill="#DE5753"/>
<path d="M320.925 121.594C320.887 121.594 320.849 121.578 320.821 121.549C320.793 121.521 320.777 121.481 320.774 121.439C320.774 121.395 320.79 121.352 320.818 121.32C320.846 121.288 320.884 121.269 320.925 121.266C321.568 121.216 322.192 121.009 322.752 120.66C323.311 120.312 323.792 119.832 324.157 119.255C324.176 119.219 324.208 119.193 324.245 119.181C324.281 119.17 324.321 119.176 324.354 119.196C324.388 119.217 324.412 119.251 324.422 119.291C324.432 119.331 324.428 119.374 324.409 119.41C324.02 120.039 323.504 120.563 322.9 120.942C322.296 121.32 321.621 121.543 320.925 121.594Z" fill="#263238"/>
<path d="M325.916 109.928C325.87 109.93 325.824 109.92 325.782 109.9C325.74 109.879 325.703 109.848 325.673 109.81C325.444 109.49 325.149 109.233 324.811 109.061C324.474 108.889 324.103 108.805 323.73 108.818C323.692 108.823 323.654 108.819 323.617 108.808C323.58 108.796 323.546 108.777 323.516 108.75C323.486 108.724 323.462 108.691 323.444 108.655C323.426 108.618 323.415 108.577 323.412 108.536C323.41 108.448 323.438 108.363 323.49 108.297C323.543 108.232 323.617 108.19 323.697 108.181C324.168 108.158 324.637 108.257 325.065 108.471C325.493 108.684 325.868 109.006 326.159 109.409C326.183 109.442 326.201 109.48 326.211 109.521C326.221 109.562 326.224 109.604 326.218 109.646C326.213 109.688 326.199 109.728 326.179 109.764C326.159 109.8 326.132 109.831 326.1 109.855C326.048 109.901 325.983 109.926 325.916 109.928Z" fill="#263238"/>
<path d="M315.892 110.865C315.85 110.853 315.81 110.832 315.775 110.802C315.747 110.772 315.725 110.737 315.71 110.697C315.695 110.658 315.687 110.616 315.687 110.574C315.687 110.532 315.695 110.49 315.71 110.451C315.725 110.412 315.747 110.376 315.775 110.347C316.065 109.921 316.444 109.576 316.881 109.34C317.318 109.104 317.8 108.985 318.287 108.991C318.326 108.993 318.364 109.004 318.398 109.023C318.433 109.042 318.463 109.068 318.488 109.101C318.512 109.133 318.53 109.171 318.541 109.212C318.551 109.252 318.553 109.295 318.547 109.337C318.535 109.422 318.494 109.501 318.432 109.556C318.37 109.611 318.292 109.64 318.212 109.637C317.83 109.646 317.455 109.75 317.115 109.941C316.776 110.132 316.481 110.404 316.253 110.738C316.212 110.797 316.156 110.841 316.091 110.864C316.027 110.887 315.957 110.887 315.892 110.865Z" fill="#263238"/>
<path d="M348.601 146.883L339.883 144.362C339.883 144.362 331.342 167.212 328.328 168.705C324.224 170.734 313.824 177.805 309.411 181.145C309.16 182.273 309.353 185.294 309.914 186.113C317.45 184.63 331.878 178.597 334.893 175.521C341.759 168.532 348.601 146.883 348.601 146.883Z" fill="#E4897B"/>
<path d="M350.87 144.271C353.173 152.334 344.171 163.381 344.171 163.381L331.736 157.867C333.203 153.197 334.9 148.616 336.819 144.144C340.646 135.199 348.542 136.127 350.87 144.271Z" fill="#1F2937"/>
<path opacity="0.6" d="M350.87 144.271C353.173 152.334 344.171 163.381 344.171 163.381L331.736 157.867C333.203 153.197 334.9 148.616 336.819 144.144C340.646 135.199 348.542 136.127 350.87 144.271Z" fill="#FAFAFA"/>
<path d="M342.546 372.19C342.122 372.232 341.698 372.11 341.349 371.844C341.241 371.738 341.16 371.604 341.115 371.454C341.069 371.304 341.061 371.144 341.089 370.989C341.094 370.892 341.122 370.798 341.171 370.717C341.219 370.635 341.286 370.569 341.366 370.525C342.077 370.142 344.045 371.498 344.263 371.653C344.288 371.67 344.307 371.695 344.319 371.724C344.331 371.753 344.335 371.785 344.33 371.817C344.322 371.849 344.307 371.878 344.284 371.901C344.262 371.923 344.234 371.938 344.204 371.944C343.662 372.094 343.106 372.176 342.546 372.19ZM341.709 370.779C341.646 370.764 341.58 370.764 341.516 370.779C341.485 370.798 341.458 370.826 341.439 370.859C341.42 370.893 341.409 370.931 341.408 370.971C341.388 371.076 341.393 371.186 341.422 371.289C341.451 371.393 341.504 371.487 341.575 371.562C342.279 371.909 343.079 371.951 343.811 371.68C343.159 371.22 342.426 370.91 341.659 370.77L341.709 370.779Z" fill="#1F2937"/>
<path d="M344.146 371.944H344.079C343.442 371.553 342.262 370.051 342.404 369.287C342.435 369.168 342.5 369.062 342.591 368.987C342.681 368.911 342.792 368.87 342.906 368.868C343.017 368.85 343.131 368.859 343.239 368.895C343.346 368.931 343.444 368.994 343.526 369.078C344.229 369.724 344.271 371.699 344.271 371.808C344.271 371.854 344.255 371.898 344.225 371.93C344.195 371.962 344.154 371.981 344.112 371.981L344.146 371.944ZM343.024 369.169H342.957C342.764 369.169 342.739 369.296 342.73 369.333C342.622 369.788 343.367 370.916 343.987 371.453C343.985 370.684 343.766 369.934 343.359 369.305C343.266 369.217 343.147 369.168 343.024 369.169Z" fill="#1F2937"/>
<path d="M320.28 371.052C319.771 371.247 319.216 371.247 318.706 371.052C318.584 370.99 318.479 370.894 318.401 370.775C318.324 370.655 318.276 370.516 318.262 370.37C318.253 370.281 318.263 370.191 318.292 370.107C318.322 370.023 318.369 369.948 318.43 369.888C319.108 369.242 321.838 369.942 322.148 370.024C322.176 370.033 322.202 370.05 322.221 370.075C322.24 370.099 322.253 370.129 322.257 370.161C322.258 370.195 322.25 370.229 322.233 370.258C322.217 370.287 322.193 370.31 322.165 370.324C321.558 370.627 320.927 370.871 320.28 371.052ZM318.924 369.97C318.826 369.988 318.734 370.032 318.656 370.097C318.631 370.122 318.613 370.154 318.603 370.189C318.593 370.224 318.591 370.261 318.597 370.297C318.599 370.391 318.624 370.483 318.67 370.563C318.716 370.643 318.78 370.708 318.857 370.752C319.301 371.016 320.339 370.807 321.662 370.206C320.769 369.955 319.842 369.875 318.924 369.97Z" fill="#1F2937"/>
<path d="M322.164 370.306H322.106C321.268 370.142 319.594 369.096 319.543 368.313C319.543 368.131 319.619 367.876 320.012 367.722C320.287 367.62 320.588 367.639 320.85 367.776C321.763 368.268 322.24 370.015 322.257 370.088C322.268 370.113 322.274 370.141 322.274 370.17C322.274 370.198 322.268 370.226 322.257 370.252C322.246 370.268 322.232 370.281 322.216 370.291C322.2 370.3 322.183 370.305 322.164 370.306ZM320.188 368.013H320.096C319.837 368.113 319.845 368.231 319.845 368.268C319.845 368.732 321.059 369.596 321.905 369.888C321.706 369.159 321.295 368.52 320.733 368.068C320.564 367.974 320.369 367.955 320.188 368.013Z" fill="#1F2937"/>
<path d="M242.898 192.41C243.616 190.187 244.939 188.254 246.692 186.868C248.445 185.481 250.545 184.707 252.712 184.648H337.522C338.692 184.618 339.854 184.866 340.926 185.376C341.998 185.885 342.954 186.644 343.728 187.597C344.502 188.551 345.075 189.677 345.406 190.897C345.737 192.117 345.818 193.4 345.645 194.658L326.795 368.768C326.454 371.493 325.231 373.997 323.345 375.832C321.459 377.666 319.034 378.71 316.504 378.778H103.809C102.639 378.81 101.476 378.562 100.403 378.053C99.3305 377.545 98.3733 376.786 97.5991 375.832C96.8248 374.878 96.2524 373.751 95.9219 372.531C95.5914 371.31 95.511 370.026 95.6863 368.768L111.747 220.557C112.089 217.831 113.312 215.327 115.198 213.493C117.083 211.659 119.509 210.614 122.039 210.547H220.012C229.994 210.547 239.498 203.03 242.898 192.41Z" fill="#1F2937"/>
<path opacity="0.1" d="M242.898 192.41C243.616 190.187 244.939 188.254 246.692 186.868C248.445 185.481 250.545 184.707 252.712 184.648H337.522C338.692 184.618 339.854 184.866 340.926 185.376C341.998 185.885 342.954 186.644 343.728 187.597C344.502 188.551 345.075 189.677 345.406 190.897C345.737 192.117 345.818 193.4 345.645 194.658L326.795 368.768C326.454 371.493 325.231 373.997 323.345 375.832C321.459 377.666 319.034 378.71 316.504 378.778H103.809C102.639 378.81 101.476 378.562 100.403 378.053C99.3305 377.545 98.3733 376.786 97.5991 375.832C96.8248 374.878 96.2524 373.751 95.9219 372.531C95.5914 371.31 95.511 370.026 95.6863 368.768L111.747 220.557C112.089 217.831 113.312 215.327 115.198 213.493C117.083 211.659 119.509 210.614 122.039 210.547H220.012C229.994 210.547 239.498 203.03 242.898 192.41Z" fill="#FAFAFA"/>
<path d="M167.082 115.327L52.541 202.129L128.144 319.946L242.685 233.143L167.082 115.327Z" fill="#1F2937"/>
<path opacity="0.8" d="M167.082 115.327L52.541 202.129L128.144 319.946L242.685 233.143L167.082 115.327Z" fill="#FAFAFA"/>
<path d="M166.781 117.158L52.2397 203.961L127.843 321.777L242.384 234.975L166.781 117.158Z" fill="#FAFAFA"/>
<path d="M164.448 132.675L66.4321 206.954L118.507 288.106L216.523 213.827L164.448 132.675Z" fill="#1F2937"/>
<path opacity="0.8" d="M164.448 132.675L66.4321 206.954L118.507 288.106L216.523 213.827L164.448 132.675Z" fill="#FAFAFA"/>
<path d="M126.921 202.529C128.816 205.484 129.862 208.983 129.926 212.584C129.991 216.185 129.07 219.726 127.282 222.759C125.494 225.791 122.917 228.178 119.88 229.619C116.842 231.059 113.479 231.488 110.217 230.85C106.955 230.213 103.941 228.538 101.555 226.037C99.1699 223.537 97.5207 220.324 96.8166 216.804C96.1125 213.285 96.3852 209.617 97.6001 206.266C98.815 202.915 100.918 200.031 103.641 197.979C107.286 195.235 111.783 194.172 116.147 195.025C120.51 195.878 124.385 198.577 126.921 202.529Z" fill="#1F2937"/>
<path opacity="0.1" d="M126.921 202.529C128.816 205.484 129.862 208.983 129.926 212.584C129.991 216.185 129.07 219.726 127.282 222.759C125.494 225.791 122.917 228.178 119.88 229.619C116.842 231.059 113.479 231.488 110.217 230.85C106.955 230.213 103.941 228.538 101.555 226.037C99.1699 223.537 97.5207 220.324 96.8166 216.804C96.1125 213.285 96.3852 209.617 97.6001 206.266C98.815 202.915 100.918 200.031 103.641 197.979C107.286 195.235 111.783 194.172 116.147 195.025C120.51 195.878 124.385 198.577 126.921 202.529Z" fill="#FAFAFA"/>
<path d="M189.44 194.512C186.916 191.781 183.871 189.686 180.52 188.376C177.168 187.066 173.592 186.573 170.046 186.932C169.937 186.768 169.853 186.586 169.744 186.413C166.501 181.296 161.699 177.587 156.186 175.939C150.673 174.291 144.801 174.81 139.605 177.405C134.41 179.999 130.223 184.503 127.783 190.123C125.343 195.743 124.807 202.118 126.268 208.126C125.536 208.501 124.833 208.939 124.166 209.436C121.778 211.241 119.943 213.781 118.898 216.731C117.853 219.68 117.646 222.902 118.304 225.98C115.108 227.342 112.385 229.757 110.516 232.887C108.597 235.999 107.556 239.652 107.522 243.398C107.488 247.144 108.462 250.819 110.324 253.972C111.607 256.066 113.262 257.86 115.191 259.25C117.121 260.64 119.286 261.596 121.561 262.064C123.835 262.532 126.173 262.502 128.436 261.975C130.7 261.448 132.844 260.435 134.742 258.995L162.92 237.637L188.736 218.072C191.607 215.942 193.59 212.668 194.256 208.96C194.922 205.253 194.217 201.409 192.295 198.262L192.22 198.134C191.396 196.838 190.465 195.626 189.44 194.512Z" fill="#1F2937"/>
<path opacity="0.3" d="M189.44 194.512C186.916 191.781 183.871 189.686 180.52 188.376C177.168 187.066 173.592 186.573 170.046 186.932C169.937 186.768 169.853 186.586 169.744 186.413C166.501 181.296 161.699 177.587 156.186 175.939C150.673 174.291 144.801 174.81 139.605 177.405C134.41 179.999 130.223 184.503 127.783 190.123C125.343 195.743 124.807 202.118 126.268 208.126C125.536 208.501 124.833 208.939 124.166 209.436C121.778 211.241 119.943 213.781 118.898 216.731C117.853 219.68 117.646 222.902 118.304 225.98C115.108 227.342 112.385 229.757 110.516 232.887C108.597 235.999 107.556 239.652 107.522 243.398C107.488 247.144 108.462 250.819 110.324 253.972C111.607 256.066 113.262 257.86 115.191 259.25C117.121 260.64 119.286 261.596 121.561 262.064C123.835 262.532 126.173 262.502 128.436 261.975C130.7 261.448 132.844 260.435 134.742 258.995L162.92 237.637L188.736 218.072C191.607 215.942 193.59 212.668 194.256 208.96C194.922 205.253 194.217 201.409 192.295 198.262L192.22 198.134C191.396 196.838 190.465 195.626 189.44 194.512Z" fill="black"/>
<g style="mix-blend-mode:multiply">
<path d="M170.701 136.086L53.3362 218.313L124.954 339.034L242.319 256.806L170.701 136.086Z" fill="#1F2937"/>
</g>
<path opacity="0.8" d="M170.701 136.086L53.3362 218.313L124.954 339.034L242.319 256.806L170.701 136.086Z" fill="#FAFAFA"/>
<path d="M170.347 137.917L52.9824 220.144L124.601 340.865L241.966 258.638L170.347 137.917Z" fill="#FAFAFA"/>
<path d="M167.501 153.334L67.0693 223.698L116.4 306.85L216.832 236.486L167.501 153.334Z" fill="#1F2937"/>
<path opacity="0.8" d="M167.501 153.334L67.0693 223.698L116.4 306.85L216.832 236.486L167.501 153.334Z" fill="#FAFAFA"/>
<path d="M129.939 235.308C131.867 225.498 126.113 215.846 117.085 213.75C108.058 211.654 99.1767 217.908 97.248 227.718C95.3194 237.528 101.074 247.18 110.101 249.276C119.128 251.372 128.01 245.118 129.939 235.308Z" fill="#1F2937"/>
<path opacity="0.1" d="M129.939 235.308C131.867 225.498 126.113 215.846 117.085 213.75C108.058 211.654 99.1767 217.908 97.248 227.718C95.3194 237.528 101.074 247.18 110.101 249.276C119.128 251.372 128.01 245.118 129.939 235.308Z" fill="#FAFAFA"/>
<path d="M190.394 216.143C187.962 213.311 184.987 211.095 181.679 209.653C178.37 208.21 174.81 207.577 171.252 207.798C171.151 207.616 171.076 207.434 170.967 207.262C167.894 202.019 163.217 198.123 157.759 196.261C152.302 194.399 146.415 194.69 141.136 197.083C135.857 199.476 131.524 203.818 128.902 209.342C126.28 214.867 125.537 221.22 126.803 227.282C126.055 227.621 125.335 228.029 124.651 228.501C122.21 230.212 120.296 232.677 119.156 235.58C118.016 238.483 117.702 241.691 118.254 244.79C115.012 246.017 112.208 248.322 110.24 251.378C108.217 254.411 107.054 258.02 106.895 261.761C106.736 265.503 107.587 269.213 109.344 272.436C110.553 274.582 112.144 276.445 114.025 277.913C115.905 279.382 118.037 280.428 120.294 280.989C122.552 281.55 124.89 281.616 127.171 281.181C129.452 280.747 131.63 279.822 133.578 278.46L162.509 258.185L188.971 239.648C191.903 237.625 193.986 234.43 194.769 230.753C195.553 227.075 194.974 223.21 193.157 219.992L193.074 219.865C192.289 218.537 191.391 217.291 190.394 216.143Z" fill="#1F2937"/>
<path opacity="0.3" d="M190.394 216.143C187.962 213.311 184.987 211.095 181.679 209.653C178.37 208.21 174.81 207.577 171.252 207.798C171.151 207.616 171.076 207.434 170.967 207.262C167.894 202.019 163.217 198.123 157.759 196.261C152.302 194.399 146.415 194.69 141.136 197.083C135.857 199.476 131.524 203.818 128.902 209.342C126.28 214.867 125.537 221.22 126.803 227.282C126.055 227.621 125.335 228.029 124.651 228.501C122.21 230.212 120.296 232.677 119.156 235.58C118.016 238.483 117.702 241.691 118.254 244.79C115.012 246.017 112.208 248.322 110.24 251.378C108.217 254.411 107.054 258.02 106.895 261.761C106.736 265.503 107.587 269.213 109.344 272.436C110.553 274.582 112.144 276.445 114.025 277.913C115.905 279.382 118.037 280.428 120.294 280.989C122.552 281.55 124.89 281.616 127.171 281.181C129.452 280.747 131.63 279.822 133.578 278.46L162.509 258.185L188.971 239.648C191.903 237.625 193.986 234.43 194.769 230.753C195.553 227.075 194.974 223.21 193.157 219.992L193.074 219.865C192.289 218.537 191.391 217.291 190.394 216.143Z" fill="black"/>
<g style="mix-blend-mode:multiply">
<path d="M275.642 151.142L136.833 167.689L151.245 310.467L290.054 293.92L275.642 151.142Z" fill="#1F2937"/>
</g>
<path opacity="0.8" d="M275.642 151.142L136.833 167.689L151.245 310.467L290.054 293.92L275.642 151.142Z" fill="#FAFAFA"/>
<path d="M274.564 152.598L135.754 169.145L150.167 311.923L288.976 295.376L274.564 152.598Z" fill="#FAFAFA"/>
<path d="M265.678 165.003L146.896 179.163L156.824 277.508L275.605 263.348L265.678 165.003Z" fill="#1F2937"/>
<path opacity="0.8" d="M265.678 165.003L146.896 179.163L156.824 277.508L275.605 263.348L265.678 165.003Z" fill="#FAFAFA"/>
<path d="M275.254 259.75L275.615 263.345L213.916 270.707L228.646 251.724L243.727 232.268L275.254 259.75Z" fill="#1F2937"/>
<path opacity="0.3" d="M275.254 259.75L275.615 263.345L213.916 270.707L228.646 251.724L243.727 232.268L275.254 259.75Z" fill="black"/>
<path d="M248.902 266.53L156.84 277.505L156.036 269.597L192.169 225.07L228.646 251.724L248.902 266.53Z" fill="#1F2937"/>
<path opacity="0.3" d="M248.902 266.53L156.84 277.505L156.036 269.597L192.169 225.07L228.646 251.724L248.902 266.53Z" fill="black"/>
<path d="M237.587 201.539C237.913 193.058 231.85 185.896 224.046 185.542C216.241 185.188 209.651 191.776 209.325 200.257C208.999 208.739 215.062 215.901 222.866 216.255C230.671 216.609 237.261 210.021 237.587 201.539Z" fill="#1F2937"/>
<path opacity="0.1" d="M237.587 201.539C237.913 193.058 231.85 185.896 224.046 185.542C216.241 185.188 209.651 191.776 209.325 200.257C208.999 208.739 215.062 215.901 222.866 216.255C230.671 216.609 237.261 210.021 237.587 201.539Z" fill="#FAFAFA"/>
<g style="mix-blend-mode:multiply" opacity="0.7">
<path d="M206.765 228.756C207.334 224.843 210.776 222.058 215.072 222.058H299.907C304.99 222.058 309.495 225.926 309.956 230.694L321.327 370.142C321.805 374.911 318.061 378.778 312.953 378.778H100.258C95.1672 378.778 90.6621 374.911 90.2099 370.142L81.0741 253.035C80.5967 248.266 84.3315 244.408 89.4479 244.408H187.422C197.386 244.408 205.434 237.919 206.765 228.756Z" fill="#1F2937"/>
</g>
<path d="M310.115 180.608L303.416 183.101L299.162 186.359L306.799 189.58C306.799 189.58 313.933 188.761 315.65 184.557L310.115 180.608Z" fill="#E4897B"/>
</g>
<defs>
<clipPath id="clip0_28_811">
<rect width="418.691" height="455" fill="white" transform="translate(0.057373)"/>
</clipPath>
</defs>
</svg>
